<svg width="24" height="24" viewBox="0 0 24 24" fill="none" xmlns="http://www.w3.org/2000/svg">
<path d="M12.9244 8.3219C13.1358 8.48258 13.1779 8.77996 13.02 8.98747C12.8624 9.19616 12.5639 9.23526 12.3525 9.07504C12.1414 8.91435 12.0981 8.6158 12.2561 8.40829C12.4136 8.19993 12.7141 8.16158 12.9244 8.3219Z" fill="white"/>
<path d="M14.0516 9.77236C14.2092 9.56405 14.5089 9.52575 14.7199 9.68602C14.9313 9.84553 14.9735 10.1445 14.8159 10.352C14.658 10.5602 14.3595 10.5986 14.1484 10.4391C13.937 10.2784 13.894 9.97992 14.0516 9.77236Z" fill="white"/>
<path d="M15.8475 11.1356C16.0055 10.9281 16.3048 10.8897 16.5162 11.0492C16.7272 11.2099 16.7694 11.5081 16.6118 11.7167C16.4542 11.9243 16.1557 11.9626 15.9443 11.8023C15.7333 11.6424 15.6899 11.3439 15.8475 11.1356Z" fill="white"/>
<path d="M18.3111 12.4141C18.5232 12.5737 18.5655 12.8725 18.4075 13.0809C18.2499 13.2884 17.9506 13.3267 17.74 13.166C17.529 13.0066 17.4848 12.7072 17.6436 12.4997C17.8011 12.2921 18.1009 12.2527 18.3111 12.4141Z" fill="white"/>
<path d="M20.1076 13.7774C20.3183 13.9381 20.3612 14.2362 20.2036 14.4437C20.0456 14.6524 19.7463 14.6908 19.5361 14.5305C19.3247 14.3706 19.2817 14.0721 19.4393 13.8638C19.5969 13.6554 19.8966 13.6179 20.1076 13.7774Z" fill="white"/>
<path d="M13.5832 7.61414C13.3539 7.51927 13.2479 7.24706 13.3477 7.00584C13.4472 6.76463 13.7148 6.64538 13.9448 6.74025C14.1748 6.83588 14.2797 7.10803 14.1802 7.34925C14.0807 7.59047 13.8132 7.70897 13.5832 7.61414Z" fill="white"/>
<path d="M15.5408 8.42258C15.3104 8.32775 15.2043 8.05437 15.3038 7.81433C15.4037 7.57273 15.6713 7.45461 15.9012 7.54948C16.1301 7.64436 16.2362 7.91652 16.1367 8.15773C16.0364 8.39895 15.7696 8.51745 15.5408 8.42258Z" fill="white"/>
<path d="M17.8576 8.35789C18.0877 8.45234 18.1926 8.72492 18.093 8.96694C17.9927 9.20736 17.726 9.32661 17.496 9.23061C17.2668 9.13611 17.1607 8.86353 17.2602 8.62231C17.3598 8.38114 17.6277 8.26259 17.8576 8.35789Z" fill="white"/>
<path d="M19.8137 9.16596C20.043 9.26083 20.149 9.53299 20.0495 9.77421C19.9501 10.0166 19.6825 10.1347 19.4525 10.0398C19.2225 9.94418 19.1172 9.67197 19.2167 9.43075C19.3162 9.18958 19.5837 9.07033 19.8137 9.16596Z" fill="white"/>
<path d="M21.7707 9.97442C22.0007 10.0693 22.1057 10.3422 22.0061 10.5827C21.9059 10.825 21.6391 10.9431 21.4091 10.8483C21.1791 10.7526 21.073 10.4805 21.1733 10.2388C21.2728 9.99767 21.5403 9.87954 21.7707 9.97442Z" fill="white"/>
<path d="M23.7259 10.7824C23.9567 10.8772 24.062 11.1506 23.9625 11.391C23.8622 11.6331 23.5954 11.7511 23.3655 11.6567C23.1355 11.5618 23.0302 11.2896 23.1297 11.0473C23.2292 10.806 23.4968 10.6868 23.7259 10.7824Z" fill="white"/>
<path d="M10.8382 10.4081C10.6779 10.1967 10.7162 9.89742 10.9238 9.74063C11.132 9.58186 11.4306 9.62522 11.5913 9.83625C11.7508 10.0477 11.7125 10.3462 11.5049 10.5045C11.2966 10.6625 10.9981 10.6191 10.8382 10.4081Z" fill="white"/>
<path d="M12.9545 11.632C13.1148 11.8434 13.0765 12.1419 12.8678 12.2995C12.6606 12.4583 12.3621 12.4153 12.2022 12.2039C12.0419 11.9936 12.0802 11.6932 12.2878 11.5356C12.4961 11.378 12.7946 11.421 12.9545 11.632Z" fill="white"/>
<path d="M13.5654 13.9989C13.4059 13.7886 13.4442 13.4901 13.6517 13.3314C13.86 13.1738 14.1585 13.2171 14.3185 13.4282C14.4788 13.6384 14.4405 13.9381 14.2321 14.0965C14.0246 14.2544 13.7261 14.2111 13.5654 13.9989Z" fill="white"/>
<path d="M15.6825 15.2232C15.8428 15.4353 15.8045 15.7339 15.5962 15.8914C15.3886 16.049 15.0901 16.0061 14.9302 15.7958C14.7688 15.5844 14.8075 15.2859 15.0157 15.1275C15.2233 14.9695 15.5218 15.0129 15.6825 15.2232Z" fill="white"/>
<path d="M17.0466 17.02C17.2069 17.2303 17.1674 17.5288 16.9603 17.6875C16.7528 17.8462 16.4543 17.8021 16.2936 17.5907C16.1329 17.3805 16.1716 17.0819 16.3799 16.9232C16.5874 16.7652 16.8859 16.8086 17.0466 17.02Z" fill="white"/>
<path d="M9.52205 10.8313C9.76327 10.7318 10.0355 10.8379 10.1304 11.0683C10.2264 11.2971 10.1071 11.5639 9.86551 11.6642C9.62429 11.7637 9.35208 11.6584 9.25721 11.4284C9.16238 11.1984 9.28083 10.9319 9.52205 10.8313Z" fill="white"/>
<path d="M10.3306 12.7877C10.5718 12.6882 10.844 12.7935 10.9389 13.0243C11.0345 13.2535 10.9153 13.5199 10.6741 13.6206C10.4329 13.7201 10.1607 13.614 10.0658 13.3852C9.97091 13.1552 10.0894 12.8872 10.3306 12.7877Z" fill="white"/>
<path d="M11.1385 14.7442C11.3797 14.6446 11.6523 14.75 11.7479 14.9807C11.8428 15.2099 11.7235 15.4775 11.4831 15.577C11.2411 15.6764 10.9685 15.5712 10.8741 15.3412C10.7792 15.1112 10.8973 14.8437 11.1385 14.7442Z" fill="white"/>
<path d="M11.947 16.7006C12.1883 16.6011 12.4605 16.7064 12.5565 16.9364C12.651 17.1664 12.5317 17.4339 12.2905 17.5334C12.0492 17.6329 11.7771 17.5268 11.6822 17.298C11.5874 17.0676 11.7058 16.8001 11.947 16.7006Z" fill="white"/>
<path d="M12.7555 18.657C12.9967 18.5575 13.2696 18.6628 13.3645 18.8928C13.4593 19.1228 13.3412 19.3896 13.0996 19.4887C12.8584 19.5894 12.5855 19.4833 12.4906 19.2541C12.3957 19.0241 12.5139 18.7565 12.7555 18.657Z" fill="white"/>
<path d="M13.5646 20.6135C13.8047 20.514 14.078 20.6194 14.1729 20.8493C14.2677 21.0793 14.1492 21.3457 13.908 21.4456C13.6668 21.5459 13.3934 21.4398 13.2986 21.2105C13.2042 20.9806 13.3223 20.7131 13.5646 20.6135Z" fill="white"/>
<path d="M4.34735 2.51648C5.54069 2.5161 6.62941 3.00046 7.41344 3.78178L7.41382 3.7814L8.29858 4.64212L7.17691 5.763L6.30574 4.91625L6.29993 4.91043C5.79893 4.41018 5.11207 4.10278 4.34735 4.1024C3.5823 4.10278 2.89694 4.41018 2.39477 4.91118C1.89377 5.41298 1.58637 6.09829 1.58594 6.86376V21.0162H6.88472e-05V6.86381C0.000443847 4.46207 1.94604 2.51685 4.34735 2.51648Z" fill="white"/>
<path d="M7.52073 6.09248L8.63509 4.97812L8.74384 4.86932L12.7094 4.86548L13.5918 5.74785L8.26684 11.0728L7.38559 10.1901L7.38836 6.22448L7.52073 6.09248Z" fill="white"/>
</svg>
