<svg width="24" height="24" viewBox="0 0 24 24" fill="none" xmlns="http://www.w3.org/2000/svg">
<path d="M7.59899 20.3632H4.20955C4.18288 20.3644 4.15616 20.3639 4.12955 20.3616C4.09659 20.3571 4.07867 20.3402 4.10667 20.309C4.60155 19.7602 4.75451 19.0807 4.84491 18.3775C4.87677 18.1132 4.89194 17.8473 4.89035 17.5811C4.89195 16.5997 4.89035 15.6184 4.89371 14.6372C4.89371 14.5372 4.86971 14.5071 4.76747 14.5092C4.48619 14.5164 4.20443 14.5112 3.92299 14.5112C3.27803 14.5112 2.85099 14.1752 2.56619 13.6258C2.37419 13.254 2.37419 12.8498 2.37899 12.4456C2.37899 12.4277 2.37547 12.4042 2.39867 12.3976C2.42507 12.39 2.43867 12.4136 2.45435 12.4296C2.59835 12.5645 2.74907 12.6892 2.93707 12.7599C3.06465 12.8095 3.20018 12.8356 3.33707 12.8368C3.81707 12.8368 4.29579 12.8349 4.77499 12.8389C4.86363 12.8397 4.89339 12.8181 4.89243 12.7248C4.88795 12.2457 4.88795 11.7664 4.89243 11.2871C4.89323 11.1938 4.86971 11.1623 4.77227 11.1644C4.47963 11.1704 4.18651 11.1666 3.89371 11.1664C3.37147 11.1664 2.98171 10.9228 2.69371 10.5024C2.47947 10.19 2.38379 9.83891 2.38171 9.46131C2.38171 9.35859 2.37899 9.25587 2.38171 9.15331C2.38171 9.11875 2.35707 9.06627 2.40219 9.05331C2.43515 9.04387 2.46315 9.08899 2.48939 9.11491C2.73707 9.35971 3.02827 9.49523 3.38315 9.49107C3.85099 9.48563 4.31899 9.48819 4.78683 9.49107C4.86411 9.49107 4.89227 9.47283 4.89195 9.38979C4.88699 8.34387 4.89643 7.29779 4.87979 6.25203C4.86843 5.53763 4.74635 4.84035 4.43179 4.18803C4.35019 4.01603 4.24219 3.86147 4.12667 3.71203C4.11355 3.69491 4.08251 3.68467 4.09163 3.65987C4.10299 3.62931 4.13579 3.63747 4.16187 3.63747H4.29883C6.34539 3.63747 8.39195 3.63267 10.4384 3.64195C11.5323 3.64691 12.6088 3.79363 13.6609 4.10419C14.7489 4.42547 15.7409 4.93027 16.6009 5.67443C17.2465 6.23267 17.7576 6.90035 18.1529 7.65651C18.4384 8.205 18.6566 8.78595 18.8028 9.38675C18.8216 9.46291 18.8524 9.49155 18.9336 9.49059C19.3176 9.48675 19.7016 9.48915 20.0856 9.49059C20.7366 9.49203 21.1588 9.83747 21.4388 10.394C21.6211 10.756 21.626 11.1471 21.6224 11.5392C21.6224 11.5613 21.626 11.5895 21.6004 11.5989C21.5712 11.6096 21.5524 11.5858 21.5339 11.5669C21.4025 11.4336 21.2556 11.3234 21.0811 11.2512C20.9511 11.1967 20.8116 11.1681 20.6707 11.1671C20.18 11.1652 19.6892 11.1684 19.1987 11.1647C19.1099 11.1647 19.0812 11.1844 19.0867 11.2789C19.12 11.757 19.1204 12.2368 19.0878 12.7149C19.0801 12.8245 19.1166 12.8408 19.2124 12.8389C19.4862 12.8333 19.7608 12.8482 20.0339 12.8351C20.7729 12.7992 21.3267 13.3264 21.5288 13.9668C21.6248 14.2732 21.6217 14.5871 21.619 14.902C21.619 14.92 21.6272 14.9434 21.603 14.95C21.5723 14.9586 21.555 14.9311 21.5366 14.9139C21.3968 14.7791 21.2486 14.658 21.0633 14.5882C20.9433 14.5403 20.8157 14.5145 20.6865 14.5122C20.1121 14.5111 19.5377 14.5132 18.9633 14.5096C18.8736 14.5096 18.8353 14.5298 18.811 14.6264C18.5672 15.6215 18.1654 16.5447 17.5448 17.3666C16.9241 18.1885 16.146 18.8242 15.2337 19.2964C14.118 19.8736 12.9209 20.1621 11.6785 20.2906C11.1185 20.3485 10.5568 20.3663 9.99403 20.3655C9.1951 20.3645 8.39627 20.3645 7.59756 20.3655L7.59899 20.3632ZM11.6867 9.48963V9.48803C13.0784 9.48803 14.47 9.48878 15.8617 9.49027C15.9606 9.49027 15.9851 9.46627 15.9667 9.36931C15.8032 8.50739 15.5531 7.67731 15.1003 6.91699C14.6265 6.12131 13.9792 5.51411 13.1483 5.10643C12.2947 4.68803 11.3795 4.52371 10.4393 4.48947C9.47035 4.45395 8.50043 4.48323 7.53083 4.47347C7.42347 4.47235 7.39947 4.50371 7.39979 4.60675C7.40299 6.19224 7.40299 7.77774 7.39979 9.36323C7.39979 9.47523 7.43563 9.49203 7.53467 9.49123C8.91857 9.48856 10.3026 9.48803 11.6867 9.48963ZM11.6899 14.5124C10.3016 14.5124 8.91334 14.5112 7.52507 14.5095C7.42299 14.5095 7.39979 14.5367 7.39995 14.6364C7.40331 16.1615 7.40187 17.6864 7.40347 19.2124C7.40347 19.3133 7.35803 19.4442 7.42507 19.5077C7.49211 19.5712 7.62123 19.5279 7.72267 19.5264C8.68811 19.512 9.65435 19.5661 10.6187 19.4901C11.4507 19.4245 12.2556 19.253 13.0152 18.8981C13.8216 18.5207 14.476 17.9658 14.9705 17.2228C15.4985 16.4292 15.7832 15.5437 15.9635 14.6176C15.9811 14.5269 15.9524 14.512 15.8659 14.5122C14.474 14.5138 13.082 14.5141 11.6899 14.5124ZM11.7776 12.8375V12.8341C13.196 12.8341 14.6144 12.8327 16.0328 12.8372C16.1348 12.8372 16.1644 12.8087 16.1665 12.7138C16.1772 12.2347 16.1772 11.7558 16.1665 11.277C16.1644 11.1895 16.1384 11.1623 16.047 11.1624C13.2102 11.1653 10.3734 11.1653 7.53659 11.1624C7.42267 11.1624 7.39899 11.1984 7.40027 11.3045C7.40571 11.7645 7.40299 12.2247 7.40283 12.6847C7.40283 12.8373 7.40203 12.8372 7.55739 12.8372L11.7776 12.8375Z" fill="white"/>
</svg>
