<svg width="24" height="24" viewBox="0 0 24 24" fill="none" xmlns="http://www.w3.org/2000/svg">
<g clip-path="url(#clip0_50_61)">
<path d="M12.0855 -0.00830078C7.16625 -0.00830078 3 4.18195 3 9.1447C3 14.3422 7.82925 19.6574 11.0775 23.3932C11.0903 23.4082 11.6153 23.9909 12.2618 23.9909H12.3187C12.966 23.9909 13.4872 23.4082 13.5 23.3932C16.548 19.8892 21 14.1104 21 9.1447C21 4.1812 17.7503 -0.00830078 12.0855 -0.00830078ZM12.3862 22.3867C12.36 22.4129 12.3218 22.4422 12.288 22.4669C12.2535 22.4429 12.216 22.4129 12.1882 22.3867L11.796 21.9352C8.7165 18.4027 4.49925 13.5644 4.49925 9.14395C4.49925 4.99495 7.97325 1.4902 12.0848 1.4902C17.2065 1.4902 19.4993 5.33395 19.4993 9.14395C19.4993 12.4994 17.106 16.9559 12.3862 22.3867ZM12.0262 4.53295C9.5415 4.53295 7.52625 6.54745 7.52625 9.03295C7.52625 11.5184 9.5415 13.5329 12.0262 13.5329C14.511 13.5329 16.5262 11.5177 16.5262 9.03295C16.5262 6.5482 14.5117 4.53295 12.0262 4.53295ZM12.0262 12.0329C10.3717 12.0329 8.99175 10.6544 8.99175 8.99995C8.99175 7.34545 10.3373 5.99995 11.9918 5.99995C13.647 5.99995 14.9918 7.34545 14.9918 8.99995C14.9925 10.6544 13.6815 12.0329 12.0262 12.0329Z" fill="white"/>
</g>
<defs>
<clipPath id="clip0_50_61">
<rect width="24" height="24" fill="white"/>
</clipPath>
</defs>
</svg>
